Input #0, mov,mp4,m4a,3gp,3g2,mj2, from '/home/hbattu/projects/huberman-gpt/huberman-audio/mp3/tmpvr6297sk.mp4':
  Metadata:
    major_brand     : dash
    minor_version   : 0
    compatible_brands: iso6mp41
    creation_time   : 2021-12-22T12:20:02.000000Z
  Duration: 01:33:21.88, start: 0.000000, bitrate: 129 kb/s
    Stream #0:0(und): Audio: aac (LC) (mp4a / 0x6134706D), 44100 Hz, stereo, fltp, 0 kb/s (default)
    Metadata:
      creation_time   : 2021-12-22T12:20:02.000000Z
      handler_name    : ISO Media file produced by Google Inc.
Stream mapping:
  Stream #0:0 -> #0:0 (aac (native) -> mp3 (libmp3lame))
Press [q] to stop, [?] for help
[graph_0_in_0_0 @ 0x55d4c3738580] tb:1/44100 samplefmt:fltp samplerate:44100 chlayout:0x3
Output #0, mp3, to '../huberman-audio/mp3/RgAcOqVRfYA.mp3':
  Metadata:
    major_brand     : dash
    minor_version   : 0
    compatible_brands: iso6mp41
    TSSE            : Lavf58.29.100
    Stream #0:0(und): Audio: mp3 (libmp3lame), 44100 Hz, stereo, fltp, delay 1105 (default)
    Metadata:
      creation_time   : 2021-12-22T12:20:02.000000Z
      handler_name    : ISO Media file produced by Google Inc.
      encoder         : Lavc58.54.100 libmp3lame
No more output streams to write to, finishing.
size=   87531kB time=01:33:21.90 bitrate= 128.0kbits/s speed=85.9x    
[AVIOContext @ 0x55d4c362c900] Statistics: 0 seeks, 131 writeouts
video:0kB audio:87530kB subtitle:0kB other streams:0kB global headers:0kB muxing overhead: 0.000386%
Input file #0 (/home/hbattu/projects/huberman-gpt/huberman-audio/mp3/tmpvr6297sk.mp4):
  Input stream #0:0 (audio): 241253 packets read (89630139 bytes); 241253 frames decoded (247043072 samples); 
  Total: 241253 packets (89630139 bytes) demuxed
Output file #0 (../huberman-audio/mp3/RgAcOqVRfYA.mp3):
  Output stream #0:0 (audio): 214448 frames encoded (247043072 samples); 214449 packets muxed (89630929 bytes); 
  Total: 214449 packets (89630929 bytes) muxed
[AVIOContext @ 0x55d4c3650bc0] Statistics: 2 seeks, 343 writeouts
[AVIOContext @ 0x55d4c3635880] Statistics: 90661007 bytes read, 0 seeks
